<svg xmlns="http://www.w3.org/2000/svg" width="560" height="480" viewBox="0 0 560 480">
  <!-- Fondo azul -->
  <rect width="560" height="480" fill="#0d47a1" rx="20" ry="20"></rect>
  
  <!-- 7 columnas × 6 filas de agujeros -->
  <g fill="white">
    <!-- Filas -->
    <circle cx="40" cy="40" r="30"></circle>
    <circle cx="120" cy="40" r="30"></circle>
    <circle cx="200" cy="40" r="30"></circle>
    <circle cx="280" cy="40" r="30"></circle>
    <circle cx="360" cy="40" r="30"></circle>
    <circle cx="440" cy="40" r="30"></circle>
    <circle cx="520" cy="40" r="30"></circle>

    <circle cx="40" cy="120" r="30"></circle>
    <circle cx="120" cy="120" r="30"></circle>
    <circle cx="200" cy="120" r="30"></circle>
    <circle cx="280" cy="120" r="30"></circle>
    <circle cx="360" cy="120" r="30"></circle>
    <circle cx="440" cy="120" r="30"></circle>
    <circle cx="520" cy="120" r="30"></circle>

    <circle cx="40" cy="200" r="30"></circle>
    <circle cx="120" cy="200" r="30"></circle>
    <circle cx="200" cy="200" r="30"></circle>
    <circle cx="280" cy="200" r="30"></circle>
    <circle cx="360" cy="200" r="30"></circle>
    <circle cx="440" cy="200" r="30"></circle>
    <circle cx="520" cy="200" r="30"></circle>

    <circle cx="40" cy="280" r="30"></circle>
    <circle cx="120" cy="280" r="30"></circle>
    <circle cx="200" cy="280" r="30"></circle>
    <circle cx="280" cy="280" r="30"></circle>
    <circle cx="360" cy="280" r="30"></circle>
    <circle cx="440" cy="280" r="30"></circle>
    <circle cx="520" cy="280" r="30"></circle>

    <circle cx="40" cy="360" r="30"></circle>
    <circle cx="120" cy="360" r="30"></circle>
    <circle cx="200" cy="360" r="30"></circle>
    <circle cx="280" cy="360" r="30"></circle>
    <circle cx="360" cy="360" r="30"></circle>
    <circle cx="440" cy="360" r="30"></circle>
    <circle cx="520" cy="360" r="30"></circle>

    <circle cx="40" cy="440" r="30"></circle>
    <circle cx="120" cy="440" r="30"></circle>
    <circle cx="200" cy="440" r="30"></circle>
    <circle cx="280" cy="440" r="30"></circle>
    <circle cx="360" cy="440" r="30"></circle>
    <circle cx="440" cy="440" r="30"></circle>
    <circle cx="520" cy="440" r="30"></circle>
  </g>
</svg>
